# File produced by Open Asset Import Library (http://www.assimp.sf.net)
# (assimp v3.1.243586452)

mtllib InnerWall.mtl

# vertex positions
v -1.520569 0.818342 -1.452202
v -1.520569 0.196851 -1.452202
v -1.052357 0.196851 -1.452202
v -1.052357 0.818342 -1.452202
v -1.520569 0.818342 -1.506371
v -1.052357 0.818342 -1.506371
v -1.520569 0.196851 -1.506371
v -1.052357 0.196851 -1.506371
v -1.520569 0.924659 -1.452202
v -1.520569 0.818342 -1.452202
v -1.052357 0.818342 -1.452202
v -1.052357 0.924659 -1.452202
v -1.520569 0.924659 -1.506371
v -1.052357 0.924659 -1.506371
v -1.520569 0.818342 -1.506371
v -1.052357 0.818342 -1.506371

# UV coordinates
vt 0.399958 0.858982
vt 0.399958 0.523962
vt 0.652351 0.523962
vt 0.652351 0.858982
vt 0.989175 0.159140
vt 0.989175 0.197019
vt 0.661765 0.197019
vt 0.661765 0.159140
vt 0.934154 0.524035
vt 0.934154 0.859055
vt 0.681761 0.859055
vt 0.681761 0.524035
vt 0.958263 0.303616
vt 0.958263 0.341495
vt 0.630853 0.341495
vt 0.630853 0.303616
vt 0.652480 0.858972
vt 0.652480 0.523952
vt 0.681681 0.523952
vt 0.681681 0.858972
vt 0.145465 0.324714
vt 0.145465 0.759308
vt 0.107586 0.759308
vt 0.107586 0.324714
vt 0.399906 0.916524
vt 0.399906 0.859213
vt 0.652299 0.859213
vt 0.652299 0.916524
vt 0.370936 0.165763
vt 0.370936 0.203642
vt 0.043527 0.203642
vt 0.043527 0.165763
vt 0.682019 0.916597
vt 0.682019 0.859286
vt 0.934413 0.859286
vt 0.934413 0.916597
vt 0.990610 0.949632
vt 0.990610 0.987511
vt 0.663201 0.987511
vt 0.663201 0.949632
vt 0.652562 0.916451
vt 0.652562 0.859140
vt 0.681762 0.859140
vt 0.681762 0.916451
vt 0.526409 0.198474
vt 0.526409 0.272819
vt 0.488530 0.272819
vt 0.488530 0.198474

# vertex normals
vn 0.000000 -0.000000 1.000000
vn 0.000000 1.000000 0.000000
vn 0.000000 0.000000 -1.000000
vn 0.000000 -1.000000 -0.000000
vn 1.000000 0.000000 0.000000
vn -1.000000 0.000000 0.000000

# Mesh
g InsideWall1
usemtl lambert1
f 1/1/1 2/2/1 3/3/1
f 3/3/1 4/4/1 1/1/1
f 5/5/2 1/6/2 4/7/2
f 4/7/2 6/8/2 5/5/2
f 7/9/3 5/10/3 6/11/3
f 6/11/3 8/12/3 7/9/3
f 2/13/4 7/14/4 8/15/4
f 8/15/4 3/16/4 2/13/4
f 4/17/5 3/18/5 8/19/5
f 8/19/5 6/20/5 4/17/5
f 5/21/6 7/22/6 2/23/6
f 2/23/6 1/24/6 5/21/6

# Mesh
g InsideWall5
usemtl lambert1
f 9/25/1 10/26/1 11/27/1
f 11/27/1 12/28/1 9/25/1
f 13/29/2 9/30/2 12/31/2
f 12/31/2 14/32/2 13/29/2
f 15/33/3 13/34/3 14/35/3
f 14/35/3 16/36/3 15/33/3
f 10/37/4 15/38/4 16/39/4
f 16/39/4 11/40/4 10/37/4
f 12/41/5 11/42/5 16/43/5
f 16/43/5 14/44/5 12/41/5
f 13/45/6 15/46/6 10/47/6
f 10/47/6 9/48/6 13/45/6
